name analog
datacolumns 19
datarows 77
range 0.47150000000000003 0.5095000000000001
endheader
time	ground_force_vx	ground_force_vy	ground_force_vz	ground_force_px	ground_force_py	ground_force_pz	l_ground_force_vx	l_ground_force_vy	l_ground_force_vz	l_ground_force_px	l_ground_force_py	l_ground_force_pz	ground_torque_x	ground_torque_y	ground_torque_z	l_ground_torque_x	l_ground_torque_y	l_ground_torque_z
0.47150000000000003	-0.0	-0.0	-0.0	-7.086786270141602	2.7130327224731445	-595.26318359375	-0.0	-0.0	-0.0	-0.0	-0.0	-0.0	-0.0	-0.0	-0.0	-0.0	-0.0	-0.0
0.47200000000000003	-0.0	-0.0	-0.0	-7.298280239105225	2.9302637577056885	-594.3143310546875	-0.0	-0.0	-0.0	-0.0	-0.0	-0.0	-0.0	-0.0	-0.0	-0.0	-0.0	-0.0
0.47250000000000003	-0.0	-0.0	-0.0	-7.086656093597412	2.785341024398804	-594.9536743164062	-0.0	-0.0	-0.0	-0.0	-0.0	-0.0	-0.0	-0.0	-0.0	-0.0	-0.0	-0.0
0.47300000000000003	-0.0	-0.0	-0.0	-7.488717079162598	2.673912048339844	-594.1383056640625	-0.0	-0.0	-0.0	-0.0	-0.0	-0.0	-0.0	-0.0	-0.0	-0.0	-0.0	-0.0
0.47350000000000003	-0.0	-0.0	-0.0	-7.539542198181152	3.364046335220337	-594.184814453125	-0.0	-0.0	-0.0	-0.0	-0.0	-0.0	-0.0	-0.0	-0.0	-0.0	-0.0	-0.0
0.47400000000000003	-0.0	-0.0	-0.0	-7.889342784881592	3.3406994342803955	-593.0511474609375	-0.0	-0.0	-0.0	-0.0	-0.0	-0.0	-0.0	-0.0	-0.0	-0.0	-0.0	-0.0
0.47450000000000003	-0.0	-0.0	-0.0	-8.401041984558105	3.433875322341919	-590.7166748046875	-0.0	-0.0	-0.0	-0.0	-0.0	-0.0	-0.0	-0.0	-0.0	-0.0	-0.0	-0.0
0.47500000000000003	-0.0	-0.0	-0.0	-8.017095565795898	3.541536331176758	-590.8699951171875	-0.0	-0.0	-0.0	-0.0	-0.0	-0.0	-0.0	-0.0	-0.0	-0.0	-0.0	-0.0
0.47550000000000003	-0.0	-0.0	-0.0	-8.817248344421387	3.613193988800049	-587.84423828125	-0.0	-0.0	-0.0	-0.0	-0.0	-0.0	-0.0	-0.0	-0.0	-0.0	-0.0	-0.0
0.47600000000000003	-0.0	-0.0	-0.0	-8.539896011352539	3.603708505630493	-589.5535888671875	-0.0	-0.0	-0.0	-0.0	-0.0	-0.0	-0.0	-0.0	-0.0	-0.0	-0.0	-0.0
0.47650000000000003	-0.0	-0.0	-0.0	-8.551942825317383	3.729549884796143	-589.3602294921875	-0.0	-0.0	-0.0	-0.0	-0.0	-0.0	-0.0	-0.0	-0.0	-0.0	-0.0	-0.0
0.47700000000000004	-0.0	-0.0	-0.0	-8.896185874938965	3.6791892051696777	-589.2474975585938	-0.0	-0.0	-0.0	-0.0	-0.0	-0.0	-0.0	-0.0	-0.0	-0.0	-0.0	-0.0
0.47750000000000004	-0.0	-0.0	-0.0	-8.742630004882812	3.743476867675781	-590.3153686523438	-0.0	-0.0	-0.0	-0.0	-0.0	-0.0	-0.0	-0.0	-0.0	-0.0	-0.0	-0.0
0.47800000000000004	-0.0	-0.0	-0.0	-8.76843547821045	3.5781071186065674	-591.5262451171875	-0.0	-0.0	-0.0	-0.0	-0.0	-0.0	-0.0	-0.0	-0.0	-0.0	-0.0	-0.0
0.47850000000000004	-0.0	-0.0	-0.0	-8.87002182006836	3.756312608718872	-594.1998291015625	-0.0	-0.0	-0.0	-0.0	-0.0	-0.0	-0.0	-0.0	-0.0	-0.0	-0.0	-0.0
0.47900000000000004	-0.0	-0.0	-0.0	-9.379315376281738	3.667292356491089	-597.1246337890625	-0.0	-0.0	-0.0	-0.0	-0.0	-0.0	-0.0	-0.0	-0.0	-0.0	-0.0	-0.0
0.47950000000000004	-0.0	-0.0	-0.0	-10.01780128479004	3.6163315773010254	-601.408447265625	-0.0	-0.0	-0.0	-0.0	-0.0	-0.0	-0.0	-0.0	-0.0	-0.0	-0.0	-0.0
0.48	-0.0	-0.0	-0.0	-10.526840209960938	3.7946677207946777	-603.0357055664062	-0.0	-0.0	-0.0	-0.0	-0.0	-0.0	-0.0	-0.0	-0.0	-0.0	-0.0	-0.0
0.4805	-0.0	-0.0	-0.0	-10.691888809204102	3.360234022140503	-605.3504638671875	-0.0	-0.0	-0.0	-0.0	-0.0	-0.0	-0.0	-0.0	-0.0	-0.0	-0.0	-0.0
0.481	-0.0	-0.0	-0.0	-11.191929817199709	3.3463754653930664	-608.1222534179688	-0.0	-0.0	-0.0	-0.0	-0.0	-0.0	-0.0	-0.0	-0.0	-0.0	-0.0	-0.0
0.4815	-0.0	-0.0	-0.0	-11.556421279907228	2.749406337738037	-610.1453857421875	-0.0	-0.0	-0.0	-0.0	-0.0	-0.0	-0.0	-0.0	-0.0	-0.0	-0.0	-0.0
0.482	-0.0	-0.0	-0.0	-11.254311561584473	3.0681114196777344	-612.0752563476562	-0.0	-0.0	-0.0	-0.0	-0.0	-0.0	-0.0	-0.0	-0.0	-0.0	-0.0	-0.0
0.4825	-0.0	-0.0	-0.0	-11.35340976715088	2.602950096130371	-616.9668579101562	-0.0	-0.0	-0.0	-0.0	-0.0	-0.0	-0.0	-0.0	-0.0	-0.0	-0.0	-0.0
0.483	-0.0	-0.0	-0.0	-11.292160987854004	2.40652084350586	-617.2654418945312	-0.0	-0.0	-0.0	-0.0	-0.0	-0.0	-0.0	-0.0	-0.0	-0.0	-0.0	-0.0
0.4835	-0.0	-0.0	-0.0	-10.883682250976562	1.9699194431304927	-617.5836791992188	-0.0	-0.0	-0.0	-0.0	-0.0	-0.0	-0.0	-0.0	-0.0	-0.0	-0.0	-0.0
0.484	-0.0	-0.0	-0.0	-10.624732971191406	1.5295729637145996	-620.6509399414062	-0.0	-0.0	-0.0	-0.0	-0.0	-0.0	-0.0	-0.0	-0.0	-0.0	-0.0	-0.0
0.4845	-0.0	-0.0	-0.0	-10.348419189453123	1.730810046195984	-621.6300048828125	-0.0	-0.0	-0.0	-0.0	-0.0	-0.0	-0.0	-0.0	-0.0	-0.0	-0.0	-0.0
0.485	-0.0	-0.0	-0.0	-9.537530899047852	1.1959445476531982	-623.5681762695312	-0.0	-0.0	-0.0	-0.0	-0.0	-0.0	-0.0	-0.0	-0.0	-0.0	-0.0	-0.0
0.4855	-0.0	-0.0	-0.0	-9.545524597167969	0.7874318957328796	-621.5076904296875	-0.0	-0.0	-0.0	-0.0	-0.0	-0.0	-0.0	-0.0	-0.0	-0.0	-0.0	-0.0
0.486	-0.0	-0.0	-0.0	-8.735260009765625	0.675918459892273	-623.392333984375	-0.0	-0.0	-0.0	-0.0	-0.0	-0.0	-0.0	-0.0	-0.0	-0.0	-0.0	-0.0
0.4865	-0.0	-0.0	-0.0	-7.619968414306641	0.5127876400947571	-621.6563110351562	-0.0	-0.0	-0.0	-0.0	-0.0	-0.0	-0.0	-0.0	-0.0	-0.0	-0.0	-0.0
0.487	-0.0	-0.0	-0.0	-6.764828205108643	0.3195348978042602	-619.3046264648438	-0.0	-0.0	-0.0	-0.0	-0.0	-0.0	-0.0	-0.0	-0.0	-0.0	-0.0	-0.0
0.4875	-0.0	-0.0	-0.0	-5.531051635742188	0.4519378542900085	-620.5978393554688	-0.0	-0.0	-0.0	-0.0	-0.0	-0.0	-0.0	-0.0	-0.0	-0.0	-0.0	-0.0
0.488	-0.0	-0.0	-0.0	-4.543819904327393	1.023179531097412	-619.1478881835938	-0.0	-0.0	-0.0	-0.0	-0.0	-0.0	-0.0	-0.0	-0.0	-0.0	-0.0	-0.0
0.4885	-0.0	-0.0	-0.0	-3.58400559425354	1.0794987678527832	-617.919189453125	-0.0	-0.0	-0.0	-0.0	-0.0	-0.0	-0.0	-0.0	-0.0	-0.0	-0.0	-0.0
0.489	-0.0	-0.0	-0.0	-2.602856159210205	1.0486055612564087	-617.1714477539062	-0.0	-0.0	-0.0	-0.0	-0.0	-0.0	-0.0	-0.0	-0.0	-0.0	-0.0	-0.0
0.4895	-0.0	-0.0	-0.0	-1.5007178783416748	1.4993703365325928	-617.3389282226562	-0.0	-0.0	-0.0	-0.0	-0.0	-0.0	-0.0	-0.0	-0.0	-0.0	-0.0	-0.0
0.49	-0.0	-0.0	-0.0	-0.8647098541259766	1.9608688354492188	-616.2174682617188	-0.0	-0.0	-0.0	-0.0	-0.0	-0.0	-0.0	-0.0	-0.0	-0.0	-0.0	-0.0
0.4905	-0.0	-0.0	-0.0	-0.2796083986759186	1.8555866479873655	-615.6566772460938	-0.0	-0.0	-0.0	-0.0	-0.0	-0.0	-0.0	-0.0	-0.0	-0.0	-0.0	-0.0
0.491	-0.0	-0.0	-0.0	0.5391781330108643	1.802781105041504	-615.8658447265625	-0.0	-0.0	-0.0	-0.0	-0.0	-0.0	-0.0	-0.0	-0.0	-0.0	-0.0	-0.0
0.4915	-0.0	-0.0	-0.0	1.0834290981292725	1.838906168937683	-612.7672119140625	-0.0	-0.0	-0.0	-0.0	-0.0	-0.0	-0.0	-0.0	-0.0	-0.0	-0.0	-0.0
0.492	-0.0	-0.0	-0.0	1.1992052793502808	1.8386069536209104	-610.8575439453125	-0.0	-0.0	-0.0	-0.0	-0.0	-0.0	-0.0	-0.0	-0.0	-0.0	-0.0	-0.0
0.4925	-0.0	-0.0	-0.0	1.4607501029968262	1.7659320831298828	-611.5640869140625	-0.0	-0.0	-0.0	-0.0	-0.0	-0.0	-0.0	-0.0	-0.0	-0.0	-0.0	-0.0
0.493	-0.0	-0.0	-0.0	1.675680160522461	1.1032488346099854	-610.428466796875	-0.0	-0.0	-0.0	-0.0	-0.0	-0.0	-0.0	-0.0	-0.0	-0.0	-0.0	-0.0
0.4935	-0.0	-0.0	-0.0	1.9796268939971924	1.0356040000915527	-611.0685424804688	-0.0	-0.0	-0.0	-0.0	-0.0	-0.0	-0.0	-0.0	-0.0	-0.0	-0.0	-0.0
0.494	-0.0	-0.0	-0.0	2.44473648071289	0.7850837707519531	-612.060791015625	-0.0	-0.0	-0.0	-0.0	-0.0	-0.0	-0.0	-0.0	-0.0	-0.0	-0.0	-0.0
0.4945	-0.0	-0.0	-0.0	2.854736328125	0.2673912048339844	-610.6537475585938	-0.0	-0.0	-0.0	-0.0	-0.0	-0.0	-0.0	-0.0	-0.0	-0.0	-0.0	-0.0
0.495	-0.0	-0.0	-0.0	3.69469952583313	-0.0706127360463142	-611.0013427734375	-0.0	-0.0	-0.0	-0.0	-0.0	-0.0	-0.0	-0.0	-0.0	-0.0	-0.0	-0.0
0.4955	-0.0	-0.0	-0.0	4.06937837600708	-0.0525597035884857	-609.73046875	-0.0	-0.0	-0.0	-0.0	-0.0	-0.0	-0.0	-0.0	-0.0	-0.0	-0.0	-0.0
0.496	-0.0	-0.0	-0.0	5.477603912353516	-0.2850604951381683	-610.0833129882812	-0.0	-0.0	-0.0	-0.0	-0.0	-0.0	-0.0	-0.0	-0.0	-0.0	-0.0	-0.0
0.4965	-0.0	-0.0	-0.0	6.28044319152832	0.0177794843912124	-610.8599243164062	-0.0	-0.0	-0.0	-0.0	-0.0	-0.0	-0.0	-0.0	-0.0	-0.0	-0.0	-0.0
0.497	-0.0	-0.0	-0.0	7.546969890594482	0.1782608032226562	-609.9429321289062	-0.0	-0.0	-0.0	-0.0	-0.0	-0.0	-0.0	-0.0	-0.0	-0.0	-0.0	-0.0
0.4975	-0.0	-0.0	-0.0	8.9391508102417	0.3558769226074219	-611.8510131835938	-0.0	-0.0	-0.0	-0.0	-0.0	-0.0	-0.0	-0.0	-0.0	-0.0	-0.0	-0.0
0.498	-0.0	-0.0	-0.0	10.56234073638916	0.3556044697761535	-610.0138549804688	-0.0	-0.0	-0.0	-0.0	-0.0	-0.0	-0.0	-0.0	-0.0	-0.0	-0.0	-0.0
0.4985	-0.0	-0.0	-0.0	10.828556060791016	1.0525381565093994	-610.6480712890625	-0.0	-0.0	-0.0	-0.0	-0.0	-0.0	-0.0	-0.0	-0.0	-0.0	-0.0	-0.0
0.499	-0.0	-0.0	-0.0	12.54171085357666	1.7994699478149414	-608.8822021484375	-0.0	-0.0	-0.0	-0.0	-0.0	-0.0	-0.0	-0.0	-0.0	-0.0	-0.0	-0.0
0.4995	-0.0	-0.0	-0.0	13.221796035766602	1.8158656358718872	-609.2433471679688	-0.0	-0.0	-0.0	-0.0	-0.0	-0.0	-0.0	-0.0	-0.0	-0.0	-0.0	-0.0
0.5	-0.0	-0.0	-0.0	14.186842918395996	2.244664192199707	-609.2353515625	-0.0	-0.0	-0.0	-0.0	-0.0	-0.0	-0.0	-0.0	-0.0	-0.0	-0.0	-0.0
0.5005000000000001	-0.0	-0.0	-0.0	14.681934356689451	2.4605274200439453	-609.8026123046875	-0.0	-0.0	-0.0	-0.0	-0.0	-0.0	-0.0	-0.0	-0.0	-0.0	-0.0	-0.0
0.501	-0.0	-0.0	-0.0	15.595832824707031	3.100515127182007	-608.9577026367188	-0.0	-0.0	-0.0	-0.0	-0.0	-0.0	-0.0	-0.0	-0.0	-0.0	-0.0	-0.0
0.5015000000000001	-0.0	-0.0	-0.0	15.84106159210205	3.0496208667755127	-611.2919311523438	-0.0	-0.0	-0.0	-0.0	-0.0	-0.0	-0.0	-0.0	-0.0	-0.0	-0.0	-0.0
0.502	-0.0	-0.0	-0.0	15.57689094543457	3.282204389572144	-612.3375244140625	-0.0	-0.0	-0.0	-0.0	-0.0	-0.0	-0.0	-0.0	-0.0	-0.0	-0.0	-0.0
0.5025000000000001	-0.0	-0.0	-0.0	15.790260314941406	3.045804977416992	-613.1974487304688	-0.0	-0.0	-0.0	-0.0	-0.0	-0.0	-0.0	-0.0	-0.0	-0.0	-0.0	-0.0
0.503	-0.0	-0.0	-0.0	15.82944107055664	3.317397356033325	-613.4735107421875	-0.0	-0.0	-0.0	-0.0	-0.0	-0.0	-0.0	-0.0	-0.0	-0.0	-0.0	-0.0
0.5035000000000001	-0.0	-0.0	-0.0	15.324461936950684	3.080107927322388	-615.358154296875	-0.0	-0.0	-0.0	-0.0	-0.0	-0.0	-0.0	-0.0	-0.0	-0.0	-0.0	-0.0
0.504	-0.0	-0.0	-0.0	14.78904914855957	3.168939113616944	-617.0841064453125	-0.0	-0.0	-0.0	-0.0	-0.0	-0.0	-0.0	-0.0	-0.0	-0.0	-0.0	-0.0
0.5045000000000001	-0.0	-0.0	-0.0	14.333699226379396	3.4323360919952397	-617.337158203125	-0.0	-0.0	-0.0	-0.0	-0.0	-0.0	-0.0	-0.0	-0.0	-0.0	-0.0	-0.0
0.505	-0.0	-0.0	-0.0	13.853626251220703	3.550881862640381	-617.2786865234375	-0.0	-0.0	-0.0	-0.0	-0.0	-0.0	-0.0	-0.0	-0.0	-0.0	-0.0	-0.0
0.5055000000000001	-0.0	-0.0	-0.0	13.197054862976074	3.83870267868042	-619.9110717773438	-0.0	-0.0	-0.0	-0.0	-0.0	-0.0	-0.0	-0.0	-0.0	-0.0	-0.0	-0.0
0.506	-0.0	-0.0	-0.0	12.949496269226074	3.8669707775115967	-619.4776611328125	-0.0	-0.0	-0.0	-0.0	-0.0	-0.0	-0.0	-0.0	-0.0	-0.0	-0.0	-0.0
0.5065000000000001	-0.0	-0.0	-0.0	12.633581161499023	4.168559551239014	-617.7932739257812	-0.0	-0.0	-0.0	-0.0	-0.0	-0.0	-0.0	-0.0	-0.0	-0.0	-0.0	-0.0
0.507	-0.0	-0.0	-0.0	12.420957565307615	4.6212334632873535	-619.4776611328125	-0.0	-0.0	-0.0	-0.0	-0.0	-0.0	-0.0	-0.0	-0.0	-0.0	-0.0	-0.0
0.5075000000000001	-0.0	-0.0	-0.0	11.749102592468262	4.339073181152344	-619.3125610351562	-0.0	-0.0	-0.0	-0.0	-0.0	-0.0	-0.0	-0.0	-0.0	-0.0	-0.0	-0.0
0.508	-0.0	-0.0	-0.0	11.295616149902344	4.778954029083252	-619.39453125	-0.0	-0.0	-0.0	-0.0	-0.0	-0.0	-0.0	-0.0	-0.0	-0.0	-0.0	-0.0
0.5085000000000001	-0.0	-0.0	-0.0	10.119593620300291	5.080432891845703	-619.696044921875	-0.0	-0.0	-0.0	-0.0	-0.0	-0.0	-0.0	-0.0	-0.0	-0.0	-0.0	-0.0
0.509	-0.0	-0.0	-0.0	9.660514831542969	4.999887943267822	-622.3872680664062	-0.0	-0.0	-0.0	-0.0	-0.0	-0.0	-0.0	-0.0	-0.0	-0.0	-0.0	-0.0
0.5095000000000001	-0.0	-0.0	-0.0	8.831840515136719	5.504714012145996	-621.3281860351562	-0.0	-0.0	-0.0	-0.0	-0.0	-0.0	-0.0	-0.0	-0.0	-0.0	-0.0	-0.0
